<?xml version="1.0" encoding="UTF-8"?>
<svg xmlns="http://www.w3.org/2000/svg" width="24" height="24" viewBox="0 0 24 24" fill="none">
  <g clip-path="url(#clip0_912_2081)">
    <path fill-rule="evenodd" clip-rule="evenodd" d="M7.71429 2.57141C6.86571 2.57141 6.20057 3.08741 5.78914 3.70627C5.37257 4.33027 5.14286 5.14455 5.14286 5.99998C5.14286 6.85541 5.37257 7.6697 5.78914 8.2937C6.20057 8.91084 6.86571 9.42855 7.71429 9.42855C8.56286 9.42855 9.228 8.91255 9.63943 8.2937C10.056 7.6697 10.2857 6.85541 10.2857 5.99998C10.2857 5.14455 10.056 4.33027 9.63943 3.70627C9.228 3.08913 8.56286 2.57141 7.71429 2.57141ZM16.2857 2.57141C15.4371 2.57141 14.772 3.08741 14.3606 3.70627C13.944 4.33027 13.7143 5.14455 13.7143 5.99998C13.7143 6.85541 13.944 7.6697 14.3606 8.2937C14.772 8.91084 15.4371 9.42855 16.2857 9.42855C17.1343 9.42855 17.7994 8.91255 18.2109 8.2937C18.6274 7.6697 18.8571 6.85541 18.8571 5.99998C18.8571 5.14455 18.6274 4.33027 18.2109 3.70627C17.7994 3.08913 17.1343 2.57141 16.2857 2.57141ZM2.57143 10.2857C1.72286 10.2857 1.05771 10.8017 0.646286 11.4206C0.229714 12.0446 0 12.8588 0 13.7143C0 14.5697 0.229714 15.384 0.646286 16.008C1.05771 16.6251 1.72286 17.1428 2.57143 17.1428C3.42 17.1428 4.08514 16.6268 4.49657 16.008C4.91314 15.384 5.14286 14.5697 5.14286 13.7143C5.14286 12.8588 4.91314 12.0446 4.49657 11.4206C4.08514 10.8034 3.42 10.2857 2.57143 10.2857ZM12 10.2857C9.94286 10.2857 8.41886 11.3897 7.44514 12.7594C6.48343 14.1086 6 15.7834 6 17.1428C6 18.7268 6.95143 19.8291 8.11886 20.4891C9.26743 21.1406 10.7074 21.4286 12 21.4286C13.2926 21.4286 14.7326 21.1423 15.8811 20.4891C17.0469 19.8274 18 18.7268 18 17.1428C18 15.7834 17.5166 14.1086 16.5549 12.7594C15.5829 11.388 14.0589 10.2857 12 10.2857ZM21.4286 10.2857C20.58 10.2857 19.9149 10.8017 19.5034 11.4206C19.0869 12.0446 18.8571 12.8588 18.8571 13.7143C18.8571 14.5697 19.0869 15.384 19.5034 16.008C19.9149 16.6251 20.58 17.1428 21.4286 17.1428C22.2771 17.1428 22.9423 16.6268 23.3537 16.008C23.7703 15.384 24 14.5697 24 13.7143C24 12.8588 23.7703 12.0446 23.3537 11.4206C22.9423 10.8034 22.2771 10.2857 21.4286 10.2857Z" fill="#E4B451"></path>
  </g>
  <defs>
    <clipPath id="clip0_912_2081">
      <rect width="24" height="24" fill="white"></rect>
    </clipPath>
  </defs>
</svg>
