<svg width="242" height="51" viewBox="0 0 242 51" fill="none" xmlns="http://www.w3.org/2000/svg">
  <path d="M65.3867 41.3896C65.3867 43.2504 64.1877 44.5466 62.4402 44.5466C61.3353 44.5466 60.489 44.0297 60.0345 43.1629V46.821H59.1177V38.2246H60.0345V39.5844C60.4968 38.7017 61.3353 38.1848 62.4167 38.1848C64.1642 38.1848 65.3867 39.4969 65.3867 41.3816V41.3896ZM64.462 41.3657C64.462 40.0218 63.5451 39.0278 62.2522 39.0278C60.9592 39.0278 60.0345 40.0059 60.0345 41.3657C60.0345 42.7256 60.9514 43.7037 62.2522 43.7037C63.553 43.7037 64.462 42.7256 64.462 41.3657Z" fill="white"/>
  <path d="M74.218 41.7394H69.1637C69.3282 42.9641 70.2059 43.7434 71.4048 43.7434C72.1649 43.7434 72.8388 43.473 73.3169 42.9561L73.8184 43.5049C73.2307 44.1728 72.3608 44.5546 71.3265 44.5546C69.5085 44.5546 68.2468 43.2504 68.2468 41.3816C68.2468 39.5128 69.5163 38.2086 71.3108 38.2086C73.309 38.1927 74.2964 39.6082 74.2024 41.7394H74.218ZM73.3952 40.976C73.3325 39.7752 72.5411 39.0118 71.3265 39.0118C70.1118 39.0118 69.3047 39.7832 69.1637 40.976H73.3952Z" fill="white"/>
  <path d="M80.8711 44.0854C80.4401 44.3875 79.9699 44.5545 79.4762 44.5625C78.5751 44.5625 77.9011 44.0138 77.9011 42.7732V39.1867H77.0078V38.4392H77.9011V36.7852H78.8023V38.4392L80.7614 38.4233V39.1867H78.8023V42.6062C78.8023 43.3696 79.1001 43.6559 79.6251 43.6559C79.9386 43.6559 80.2677 43.5446 80.6125 43.3299L80.8711 44.0774V44.0854Z" fill="white"/>
  <path d="M90.3294 37.6123V38.4235H92.1004V39.1869H90.3294V44.5149H89.4282V39.1869H88.6289V38.4235H89.4282V37.7316C89.4282 36.3638 90.3764 35.6243 91.4108 35.6243C91.8809 35.6402 92.359 35.7833 92.7351 36.0696L92.359 36.8171C92.0768 36.6104 91.7399 36.4911 91.4186 36.4911C90.8231 36.4911 90.3294 36.8807 90.3294 37.6123Z" fill="white"/>
  <path d="M100.462 41.3658C100.462 43.2505 99.1608 44.5467 97.3271 44.5467C95.4934 44.5467 94.1926 43.2425 94.1926 41.3658C94.1926 39.4891 95.4934 38.2087 97.3271 38.2087C99.1608 38.2087 100.462 39.497 100.462 41.3658ZM95.1016 41.3817C95.1016 42.7654 96.0263 43.7197 97.3193 43.7197C98.6123 43.7197 99.5369 42.7654 99.5369 41.3817C99.5369 39.998 98.6123 39.0596 97.3193 39.0596C96.0263 39.0596 95.1016 40.0139 95.1016 41.3817Z" fill="white"/>
  <path d="M109.606 41.3658C109.606 43.2505 108.306 44.5467 106.472 44.5467C104.638 44.5467 103.337 43.2425 103.337 41.3658C103.337 39.4891 104.638 38.2087 106.472 38.2087C108.306 38.2087 109.606 39.497 109.606 41.3658ZM104.246 41.3817C104.246 42.7654 105.171 43.7197 106.464 43.7197C107.757 43.7197 108.682 42.7654 108.682 41.3817C108.682 39.998 107.757 39.0596 106.464 39.0596C105.171 39.0596 104.246 40.0139 104.246 41.3817Z" fill="white"/>
  <path d="M118.79 44.5149H117.874V43.171C117.419 44.0537 116.573 44.5706 115.468 44.5706C113.705 44.5706 112.482 43.2426 112.482 41.3738C112.482 39.505 113.705 38.1929 115.452 38.1929C116.557 38.1929 117.411 38.7098 117.874 39.6004V35.6799H118.79V44.5308V44.5149ZM117.874 41.3897C117.874 40.0219 116.949 39.0278 115.64 39.0278C114.332 39.0278 113.399 40.0139 113.399 41.3897C113.399 42.7654 114.324 43.7276 115.64 43.7276C116.957 43.7276 117.874 42.7495 117.874 41.3897Z" fill="white"/>
  <path d="M126.58 38.7654L126.227 39.505C125.749 39.1948 125.122 38.996 124.55 38.996C123.86 38.996 123.328 39.2425 123.328 39.831C123.328 41.2227 126.783 40.507 126.783 42.7654C126.783 44.006 125.702 44.5547 124.519 44.5547C123.641 44.5547 122.732 44.2445 122.144 43.672L122.497 42.9642C123.022 43.4652 123.821 43.7674 124.55 43.7674C125.279 43.7674 125.866 43.497 125.874 42.8767C125.914 41.3658 122.442 42.1372 122.458 39.9105C122.458 38.7097 123.476 38.2087 124.605 38.2087C125.349 38.2087 126.062 38.4235 126.58 38.7813V38.7654Z" fill="white"/>
  <path d="M59 5H66.3504V5.43738C66.0526 5.32604 65.6059 5.42147 65.0261 5.73161C64.2189 6.16899 63.8114 6.94831 63.8114 8.08549C63.8114 9.10338 63.8114 10.169 63.7958 11.2823C63.7879 12.3956 63.7723 13.5805 63.7566 14.8449H79.2958C79.2958 12.8091 79.2958 11.2028 79.2801 10.0258C79.2723 8.84891 79.2566 8.08549 79.241 7.75149C79.1469 6.16899 78.4182 5.40557 77.0625 5.45328V5.0159H84.0681C84.0681 5.0159 84.0837 5.15905 84.0681 5.45328C83.4098 5.45328 82.9318 5.58052 82.6262 5.84294C81.9288 6.37575 81.584 7.48907 81.584 9.1829C81.584 13.3181 81.584 16.5308 81.5997 18.8211C81.6075 21.1113 81.6232 22.5109 81.6388 23.0119C81.7172 25.0636 82.4303 26.0895 83.786 26.0895C83.9349 26.0895 84.0367 26.0815 84.0994 26.0656V26.4791H77.517V26.0656C78.0812 26.0179 78.4809 25.8827 78.7003 25.6521C79.1548 25.1988 79.382 24.2604 79.382 22.8449L79.3272 16.2048H63.7566L63.7879 22.3598C63.7879 23.9901 64.0779 25.0636 64.6656 25.5805C64.9869 25.8588 65.5511 26.0179 66.3582 26.0656V26.4791H59.0078V26.0656C59.8542 25.9543 60.4027 25.7873 60.6456 25.5805C61.155 25.1113 61.4292 24.0775 61.4684 22.4791L61.4371 8.28429C61.4214 6.28032 60.6064 5.334 59.0078 5.45328V5.0159L59 5Z" fill="white"/>
  <path d="M110.061 5C110.022 10.6064 110.006 14.9801 110.022 18.1292C110.03 21.2783 110.053 23.2028 110.092 23.8946C110.202 25.3022 111.072 25.9781 112.694 25.9304V26.4632H107.663L107.694 23.0755C105.845 24.332 104.442 25.2068 103.486 25.6919C101.794 26.5189 100.046 26.9245 98.2595 26.9245C95.2661 26.9245 92.9623 26.2565 91.3637 24.9125C89.8356 23.6402 89.0755 21.8191 89.0755 19.4652C89.0755 18.495 89.0755 17.4374 89.0598 16.2763C89.052 15.1233 89.0363 13.8509 89.0206 12.4592C89.005 11.0517 88.9893 9.97813 88.9815 9.23857C88.9736 8.49901 88.9658 8.06958 88.9658 7.95825C88.9658 6.35984 88.1665 5.50099 86.5601 5.38966V5H91.5596C91.5204 8.60239 91.489 11.4891 91.4577 13.6759C91.4264 15.8549 91.4185 17.3579 91.4185 18.1849C91.4185 20.173 91.8573 21.7873 92.7428 23.0278C93.8713 24.5626 95.6501 25.326 98.0871 25.326C100.524 25.326 102.758 24.666 104.701 23.338C106.66 21.994 107.647 20.5547 107.671 19.004C107.687 16.9364 107.702 15.0358 107.71 13.3022C107.718 11.5686 107.726 9.96223 107.726 8.49105C107.726 7.16302 107.428 6.27237 106.825 5.80318C106.503 5.58052 105.994 5.43738 105.296 5.38966V5H110.069H110.061Z" fill="white"/>
  <path d="M134.502 26.4712C133.319 26.4712 130.255 23.3618 125.318 17.1431C123.845 17.1909 122.693 17.2227 121.839 17.2306C120.993 17.2386 120.444 17.2306 120.201 17.1909C120.123 18.7097 120.091 20.006 120.091 21.0875C120.091 22.169 120.107 23.0517 120.146 23.7276C120.225 25.1034 121.134 25.8588 122.889 26.002V26.4632H115.397V26.002C115.452 26.0179 115.57 26.0258 115.734 26.0258C117.012 26.0258 117.701 25.2068 117.795 23.5765C117.874 22.3519 117.897 19.7038 117.882 15.6322C117.882 13.5169 117.866 11.7913 117.842 10.4632C117.811 9.12724 117.78 8.18091 117.74 7.6163C117.631 6.14513 116.847 5.41352 115.397 5.41352V5H126.533C128.437 5 130.075 5.52485 131.446 6.57455C132.974 7.73559 133.734 9.30219 133.734 11.2744C133.734 13.1193 132.77 14.5746 130.85 15.6561C130.059 16.0775 129.095 16.4195 127.967 16.6978C128.57 17.3897 129.166 18.0895 129.746 18.7813C130.325 19.4732 130.913 20.173 131.501 20.8648C132.347 21.835 133.076 22.6382 133.687 23.2903C134.298 23.9344 134.816 24.4433 135.231 24.8171C136.062 25.5248 137.002 25.9304 138.06 26.0258V26.4632H134.502V26.4712ZM130.945 11.2744C130.945 9.39761 130.192 8.00596 128.688 7.0835C127.536 6.39165 126.18 6.04175 124.621 6.04175C123.563 6.04175 122.137 6.08946 120.326 6.18489C120.232 7.71968 120.17 9.27038 120.146 10.837C120.115 12.4036 120.146 14.0099 120.217 15.6561C120.178 15.6561 120.326 15.6799 120.656 15.7197C120.985 15.7594 121.376 15.7992 121.831 15.831C122.152 15.8469 122.489 15.8628 122.85 15.8708C123.21 15.8787 123.594 15.8867 124.009 15.8867C125.82 15.8867 127.324 15.6004 128.531 15.0358C130.153 14.2644 130.96 13.008 130.96 11.2823L130.945 11.2744Z" fill="white"/>
  <path d="M157.87 26.4711L157.925 25.9383C159.296 25.8747 159.985 25.5248 159.985 24.8966C159.985 24.8489 159.97 24.7614 159.931 24.6262C159.837 24.332 158.622 21.819 156.287 17.0715H146.876L142.722 24.7296C142.628 24.9363 142.581 25.1192 142.581 25.2624C142.581 25.668 142.895 25.8747 143.514 25.8906C143.702 25.9065 143.874 25.9145 144.039 25.9145C144.203 25.9145 144.344 25.9224 144.478 25.9383V26.4711H138.287C138.287 26.4711 138.271 26.2962 138.287 25.9383C138.326 26.0179 138.561 26.0099 138.992 25.9145C139.462 25.819 139.823 25.7157 140.066 25.5964C140.481 25.4373 142.26 22.3359 145.41 16.2922C146.75 13.7395 147.816 11.6799 148.615 10.1133C149.414 8.54668 149.947 7.45722 150.214 6.8449C150.253 6.74947 150.269 6.6779 150.269 6.63018C150.269 6.51885 150.229 6.39957 150.159 6.28028C150.081 6.161 149.986 6.04967 149.877 5.95424C149.767 5.85881 149.642 5.77929 149.508 5.71567C149.375 5.65205 149.258 5.62024 149.14 5.62024H148.451C148.2 5.62024 147.91 5.61229 147.589 5.59639V5.01587H153.097L162.65 24.666C162.987 25.2306 163.355 25.6043 163.755 25.7793C163.958 25.8588 164.405 25.9145 165.079 25.9463C165.095 25.994 165.11 26.0656 165.11 26.153C165.11 26.2405 165.118 26.3519 165.142 26.4791H157.878L157.87 26.4711ZM151.773 7.30613L147.565 15.5686H155.566L151.781 7.30613H151.773Z" fill="white"/>
  <path d="M163.778 5H171.607V5.5328C171.552 5.5169 171.34 5.50895 170.987 5.50895C170.086 5.50895 169.632 5.73161 169.632 6.18489C169.632 6.46322 169.82 6.82903 170.196 7.29821C171.63 9.05567 172.876 10.5984 173.942 11.9264C175.007 13.2545 175.893 14.3757 176.614 15.2903C178.306 13.4294 179.733 11.8549 180.885 10.5666C182.037 9.27833 182.922 8.26839 183.541 7.53678C183.972 7.01988 184.191 6.59841 184.191 6.28032C184.191 5.71571 183.572 5.46123 182.326 5.5328V5H189.45V5.5328C189.45 5.5328 189.254 5.48509 188.972 5.48509C187.914 5.48509 186.871 6.01789 185.837 7.0835C184.027 9.03976 182.444 10.7813 181.073 12.3161C179.709 13.8509 178.542 15.171 177.586 16.2922V23.171C177.586 24.4274 178.024 25.2704 178.91 25.6918C179.435 25.9145 179.905 26.002 180.32 25.9304V26.4632H172.719L172.805 26.0497C174.373 25.9702 175.156 25.2306 175.18 23.8469C175.219 22.4553 175.235 21.175 175.235 19.998C175.235 18.8211 175.227 17.7237 175.203 16.7058C173.848 14.996 172.563 13.3897 171.348 11.8946C170.133 10.3996 168.958 9.00795 167.829 7.71173C166.905 6.66203 165.972 5.97813 165.032 5.65209C164.75 5.55666 164.335 5.50895 163.786 5.50895C163.747 5.50895 163.747 5.34195 163.786 5H163.778Z" fill="white"/>
  <path d="M210.772 26.4712C209.589 26.4712 206.525 23.3618 201.588 17.1431C200.115 17.1909 198.963 17.2227 198.109 17.2306C197.262 17.2386 196.714 17.2306 196.471 17.1909C196.392 18.7097 196.361 20.006 196.361 21.0875C196.361 22.169 196.377 23.0517 196.416 23.7276C196.494 25.1034 197.403 25.8588 199.159 26.002V26.4632H191.667V26.002C191.722 26.0179 191.84 26.0258 192.004 26.0258C193.281 26.0258 193.971 25.2068 194.065 23.5765C194.143 22.3519 194.167 19.7038 194.151 15.6322C194.151 13.5169 194.136 11.7913 194.112 10.4632C194.081 9.12724 194.049 8.18091 194.01 7.6163C193.901 6.14513 193.117 5.41352 191.667 5.41352V5H202.803C204.707 5 206.344 5.52485 207.716 6.57455C209.244 7.73559 210.004 9.30219 210.004 11.2744C210.004 13.1193 209.04 14.5746 207.12 15.6561C206.329 16.0775 205.365 16.4195 204.237 16.6978C204.84 17.3897 205.435 18.0895 206.015 18.7813C206.595 19.4732 207.183 20.173 207.771 20.8648C208.617 21.835 209.346 22.6382 209.957 23.2903C210.568 23.9344 211.085 24.4433 211.501 24.8171C212.331 25.5248 213.272 25.9304 214.33 26.0258V26.4632H210.772V26.4712ZM207.214 11.2744C207.214 9.39761 206.462 8.00596 204.957 7.0835C203.806 6.39165 202.45 6.04175 200.89 6.04175C199.833 6.04175 198.406 6.08946 196.596 6.18489C196.502 7.71968 196.439 9.27038 196.416 10.837C196.385 12.4036 196.416 14.0099 196.487 15.6561C196.447 15.6561 196.596 15.6799 196.925 15.7197C197.254 15.7594 197.646 15.7992 198.101 15.831C198.422 15.8469 198.759 15.8628 199.119 15.8708C199.48 15.8787 199.864 15.8867 200.279 15.8867C202.089 15.8867 203.594 15.6004 204.801 15.0358C206.423 14.2644 207.23 13.008 207.23 11.2823L207.214 11.2744Z" fill="white"/>
  <path d="M234.14 26.4711L234.195 25.9383C235.566 25.8747 236.256 25.5248 236.256 24.8966C236.256 24.8489 236.24 24.7614 236.201 24.6262C236.107 24.332 234.892 21.819 232.557 17.0715H223.146L218.992 24.7296C218.898 24.9363 218.851 25.1192 218.851 25.2624C218.851 25.668 219.165 25.8747 219.784 25.8906C219.972 25.9065 220.144 25.9145 220.309 25.9145C220.473 25.9145 220.614 25.9224 220.748 25.9383V26.4711H214.557C214.557 26.4711 214.541 26.2962 214.557 25.9383C214.596 26.0179 214.831 26.0099 215.262 25.9145C215.732 25.819 216.093 25.7157 216.336 25.5964C216.751 25.4373 218.53 22.3359 221.68 16.2922C223.02 13.7395 224.086 11.6799 224.885 10.1133C225.684 8.54668 226.217 7.45722 226.484 6.8449C226.523 6.74947 226.539 6.6779 226.539 6.63018C226.539 6.51885 226.499 6.39957 226.429 6.28028C226.351 6.161 226.256 6.04967 226.147 5.95424C226.037 5.85881 225.912 5.77929 225.778 5.71567C225.645 5.65205 225.528 5.62024 225.41 5.62024H224.721C224.47 5.62024 224.18 5.61229 223.859 5.59639V5.01587H229.367L238.92 24.666C239.257 25.2306 239.625 25.6043 240.025 25.7793C240.228 25.8588 240.675 25.9145 241.349 25.9463C241.365 25.994 241.38 26.0656 241.38 26.153C241.38 26.2405 241.388 26.3519 241.412 26.4791H234.148L234.14 26.4711ZM228.035 7.30613L223.827 15.5686H231.828L228.043 7.30613H228.035Z" fill="white"/>
  <path d="M45.2198 41.163L44.8416 40.7812C45.7797 39.6891 46.3699 38.2724 47.4858 37.3445C47.2324 38.7803 46.0861 40.0633 45.2198 41.163Z" fill="white"/>
  <path d="M37.2756 2.97792C37.775 3.47433 37.5707 3.55452 36.8973 3.35977C15.4293 -6.18277 -5.36542 19.0425 8.36657 38.8379C10.1445 41.4001 12.8645 44.0349 15.7092 45.3599C12.4786 37.1042 19.9196 30.2805 19.1365 22.2386C19.042 21.2496 18.1303 17.7022 17.8012 16.7132C17.211 14.9376 15.2553 13.5706 15.713 11.3787C17.0862 11.058 18.1416 12.8794 19.303 12.8794C19.9007 12.8794 23.0065 11.2718 23.207 10.7334C23.7668 9.22505 23.6004 3.69198 26.2106 8.22841C26.7894 9.23269 29.271 15.9801 29.2634 16.9156C29.2558 17.9046 28.5144 18.886 28.6506 19.8864C28.7716 20.7761 30.0124 22.3341 30.2999 23.5751C30.5647 24.7131 30.3794 25.8052 30.716 26.9736C31.3743 29.2495 33.4738 32.0523 34.2266 34.5038C35.1761 37.5892 34.9264 39.9338 34.6276 43.0764C38.4635 38.5324 34.1547 32.312 37.4837 27.4433C38.1684 26.439 40.4457 24.2396 41.0132 26.5421C41.2553 27.5197 39.3071 29.1388 38.8834 30.3836C37.6615 33.9921 40.1166 38.666 38.3197 43.5614C37.8204 44.917 36.92 45.6272 36.5153 46.8912C39.6135 45.3294 42.5452 43.443 44.8339 40.7815C45.3673 40.2736 45.5602 40.4875 45.2122 41.1633C34.0866 55.269 12.4673 54.0891 3.53578 38.3644C-9.0689 16.1672 14.3436 -8.68391 37.2756 2.97792Z" fill="white"/>
  <path d="M41.4368 5.65076C41.94 6.18918 41.7281 6.38392 41.0585 6.03262C39.9955 5.25745 38.0209 3.85987 36.8973 3.35964L37.2756 2.97778C38.5959 3.64985 40.2755 4.73431 41.4368 5.65076Z" fill="white"/>
  <path d="M41.4369 5.65088C42.4204 6.42604 43.4078 7.24321 44.0849 8.32004C42.8517 8.08711 42.0611 6.76589 41.0586 6.03273L41.4369 5.65088Z" fill="white"/>
  <g transform="matrix(0.045,0,0,0.045,33.82847,5.867208)">
    <path style="fill:#4c4b4b" d="m 0,304 v 65.6 C 0,396.8 21.6,416 48,416 h 400 c 26.4,0 48,-19.2 48,-46.4 V 304 Z"/>
    <path style="fill:#49a948" d="M 448,80 H 48 C 21.6,80 0,99.2 0,126.4 V 192 H 496 V 126.4 C 496,99.2 474.4,80 448,80 Z"/>
    <rect y="192" style="fill:#ffffff" width="496" height="112" x="0"/>
    <path style="fill:#3f3f3f" d="m 446.4,416 c 26.4,0 49.6,-19.2 49.6,-46.4 V 304 H 315.2 Z"/>
    <path style="fill:#369933" d="M 448,80 H 48 L 180.8,192 H 496 V 126.4 C 496,99.2 474.4,80 448,80 Z"/>
    <polygon style="fill:#cfe5e2" points="496,192 180,192 316,304 496,304 "/>
    <path style="fill:#1c8417" d="M 448,80 H 48 L 418.4,192 H 496 V 126.4 C 496,99.2 474.4,80 448,80 Z"/>
    <polygon style="fill:#bad3cf" points="414.4,192 496,214.4 496,192 "/>
    <path style="fill:#232222" d="m 496,368.8 c 0,28.8 -21.6,47.2 -48,47.2 H 48 C 21.6,416 0,395.2 0,368"/>
    <path style="fill:#e73b36" d="M 120,80 H 48 C 21.6,80 0,99.2 0,126.4 v 64 0.8 114.4 0.8 64 C 0,396.8 21.6,416 48,416 h 72 z"/>
    <polygon style="fill:#db2c2c" points="0,191.2 0,304.8 0,304 120,304 120,192 0,192 "/>
    <path style="fill:#cc2525" d="m 0,304 v 2.4 64 C 0,396.8 21.6,416 48,416 h 72 V 304 Z"/>
    <path style="fill:#b70808" d="m 0,368 c 0,32 21.6,48 48,48 h 72 v -48 z"/>
    <polygon style="fill:#cc2525" points="120,140.8 120,80 48,80 "/>
    <polygon style="fill:#b70808" points="120,100 120,80 48,80 "/>
  </g>
</svg>